<?xml version="1.0" standalone="no"?>
<!DOCTYPE svg PUBLIC "-//W3C//DTD SVG 20010904//EN"
 "http://www.w3.org/TR/2001/REC-SVG-20010904/DTD/svg10.dtd">
<svg version="1.0" xmlns="http://www.w3.org/2000/svg"
 width="704.000000pt" height="704.000000pt" viewBox="0 0 704.000000 704.000000"
 preserveAspectRatio="xMidYMid meet">
<metadata>
Created by potrace 1.14, written by Peter Selinger 2001-2017
</metadata>
<g transform="translate(0.000000,704.000000) scale(0.100000,-0.100000)"
fill="#000000" stroke="none">
<path d="M8 6628 c-4 -11 -3 -193 1 -208 1 -4 136 -5 201 -1 12 1 15 20 15
109 l0 109 -106 2 c-79 1 -108 -2 -111 -11z"/>
<path d="M884 6529 c1 -66 -3 -109 -9 -110 -5 0 -55 -2 -110 -2 l-100 -2 -2
-95 c0 -52 -2 -102 -2 -110 -1 -13 -18 -15 -102 -15 -55 0 -104 -2 -108 -5 -4
-3 -7 -52 -7 -110 l0 -105 -69 -2 c-39 -1 -88 -2 -111 -2 l-41 -1 2 -110 1
-110 -111 0 -111 0 1 -327 c1 -181 3 -331 4 -334 0 -4 49 -7 109 -7 l107 0 0
112 0 111 108 0 c66 -1 107 3 108 10 1 5 2 55 2 110 l2 100 108 0 c64 0 107 4
108 10 1 6 1 56 1 113 l0 102 109 0 c97 0 109 2 110 18 1 9 1 59 1 110 l0 92
97 1 c53 1 102 1 109 0 13 -2 13 -2 15 134 l2 90 100 1 c55 1 105 2 110 3 6 0
9 43 8 109 l-1 108 104 0 c57 0 107 3 110 7 8 8 8 192 0 205 -4 7 -114 11
-330 10 l-324 0 2 -109z"/>
<path d="M2639 6612 c0 -15 0 -63 1 -107 1 -101 1 -71 0 -280 -1 -99 -1 -197
-1 -217 l1 -38 110 3 110 2 -1 -100 c0 -55 0 -106 0 -112 1 -10 30 -13 110
-13 l109 0 -1 -106 c-2 -86 1 -107 13 -113 13 -5 85 -6 186 -2 22 1 22 1 21
324 0 177 -2 327 -4 333 -2 6 -43 10 -108 9 l-105 -1 -1 36 c0 19 -1 69 -2
110 l-2 75 -103 1 c-56 1 -105 4 -108 7 -3 3 -7 52 -7 109 l-2 103 -107 2
-108 2 -1 -27z"/>
<path d="M3959 6632 c0 -4 -2 -54 -2 -111 l-2 -105 -107 1 c-93 1 -108 -2
-109 -16 0 -9 -1 -59 -2 -111 l-2 -95 -102 0 c-56 0 -105 -3 -109 -8 -11 -11
-11 -648 0 -655 17 -10 206 -7 210 4 2 5 4 55 3 110 l-1 99 111 3 110 3 -1
109 -1 110 50 1 c28 0 77 1 110 2 l60 2 0 330 0 330 -107 2 c-60 1 -108 -1
-109 -5z"/>
<path d="M5274 6530 c0 -126 -16 -113 129 -112 83 1 87 0 88 -21 1 -12 2 -62
3 -112 l1 -90 102 0 c56 0 105 -4 109 -8 4 -4 8 -54 8 -110 l1 -102 110 0 110
0 -2 -112 -2 -113 109 0 c98 0 110 -2 111 -17 1 -10 1 -60 1 -110 -1 -65 3
-93 11 -94 7 0 56 -1 109 -2 l97 0 3 -111 3 -111 108 0 107 0 0 -111 0 -111
110 0 c109 -1 110 -1 110 23 0 13 0 152 0 309 0 157 0 296 0 310 l0 25 -111 0
-110 0 1 63 c1 34 1 85 1 112 l-1 50 -110 -2 -110 -2 2 110 c3 91 1 109 -12
110 -8 1 -58 2 -110 3 l-95 1 -2 98 c-1 54 -4 104 -6 111 -4 10 -30 14 -99 14
-51 0 -98 0 -104 1 -8 1 -11 36 -11 109 l1 107 -330 2 -329 2 -1 -109z"/>
<path d="M6590 6529 c0 -125 -17 -111 132 -112 l87 0 3 -111 3 -111 95 -1 c52
0 102 1 110 3 13 4 14 34 10 221 l-5 217 -217 1 -218 2 0 -109z"/>
<path d="M1797 5972 l-37 -3 2 -80 c2 -43 0 -79 -3 -79 -3 0 -4 -13 -1 -30 l4
-30 109 0 109 0 0 -110 c0 -81 3 -110 13 -111 6 0 55 -1 107 -2 l95 -1 5 -111
5 -110 328 0 328 0 -3 110 -3 110 -102 1 c-56 0 -105 3 -109 7 -4 3 -7 53 -8
109 l-1 103 -107 3 -108 3 0 109 0 110 -27 1 c-103 3 -565 3 -596 1z"/>
<path d="M4412 5969 c-14 -5 -17 -21 -18 -100 -1 -52 -2 -99 -3 -106 -1 -9
-33 -13 -108 -15 l-107 -3 0 -107 c1 -71 -3 -108 -10 -109 -6 0 -54 -1 -106
-1 -52 -1 -97 -5 -100 -9 -3 -4 -5 -54 -5 -111 l0 -103 320 -1 c176 0 325 1
331 3 7 2 10 43 9 111 l-1 108 108 -1 c63 0 109 4 111 10 2 6 3 55 2 110 l0
100 110 5 109 5 1 98 c1 53 -2 102 -6 108 -7 12 -605 19 -637 8z"/>
<path d="M1114 5075 c-10 -8 -12 -83 -11 -335 l2 -325 102 0 c56 0 104 -3 108
-7 4 -3 7 -54 7 -113 l1 -106 104 2 c57 1 106 -1 109 -4 9 -9 10 -118 1 -124
-4 -2 -4 -10 0 -16 4 -6 6 -26 5 -44 l-3 -33 111 0 110 0 1 38 c2 72 -2 165
-7 173 -3 5 -2 9 3 9 9 0 9 410 0 433 -4 11 -30 14 -115 13 -61 -1 -108 2
-106 6 4 6 8 152 5 201 -1 15 -13 17 -110 17 l-109 0 0 93 c0 50 0 101 -1 112
-1 19 -8 20 -98 20 -53 0 -102 -4 -109 -10z"/>
<path d="M3079 5075 c-1 -5 -1 -58 -1 -118 0 -71 -3 -105 -10 -101 -15 9 -191
4 -201 -5 -5 -5 -9 -55 -10 -112 l-2 -104 -107 1 c-92 0 -108 -2 -109 -15 0
-9 -1 -59 -2 -111 l-2 -95 -105 0 -105 0 -3 -113 -3 -113 -72 1 c-40 1 -89 1
-109 1 l-38 -1 0 -110 0 -110 -111 0 -110 0 2 -106 c1 -65 -3 -109 -9 -113 -6
-3 -48 -5 -94 -5 -121 3 -119 4 -116 -72 2 -35 0 -64 -4 -64 -4 0 -5 -6 -2
-13 3 -8 6 -27 7 -43 l2 -29 218 -1 217 0 1 70 c0 39 0 89 -1 111 l-1 41 108
-1 108 0 5 110 5 110 107 3 108 3 -3 109 -2 109 110 3 110 3 5 110 5 110 106
-1 106 0 -1 111 -1 111 100 -1 c55 0 105 1 112 3 8 2 11 65 11 223 0 120 -3
219 -7 220 -55 6 -211 2 -212 -6z"/>
<path d="M3519 5080 c-5 -25 -3 -419 2 -430 6 -12 28 -15 111 -14 l104 1 -1
-101 c0 -56 1 -106 3 -112 2 -7 39 -11 103 -10 56 1 104 -1 108 -4 4 -3 7 -52
7 -110 l-1 -105 110 -5 110 -5 0 -102 c0 -56 3 -104 5 -107 3 -3 53 -6 111 -7
l105 -1 -1 -97 c-1 -53 0 -103 2 -111 3 -12 24 -15 109 -14 66 0 104 -4 105
-10 1 -6 2 -56 3 -111 l1 -99 217 -2 c190 -1 217 1 220 15 2 9 4 59 3 111 l0
95 -110 0 -110 0 -1 100 c-1 55 -2 106 -3 113 -1 9 -30 12 -109 12 l-108 0 1
110 1 110 -40 1 c-23 0 -73 0 -111 -1 l-71 -1 2 103 c0 57 -1 108 -3 113 -2 7
-42 10 -103 9 -54 0 -102 2 -107 5 -4 3 -8 53 -8 111 l0 105 -110 0 -109 1 0
112 0 113 -111 -3 -110 -3 1 113 c1 108 1 112 -20 113 -88 4 -196 3 -197 -1z"/>
<path d="M5519 5080 c-25 -5 -25 -6 -25 -110 l1 -105 -110 -5 -110 -5 -1 -110
0 -110 -110 0 -109 0 0 -332 -1 -333 111 0 110 0 -1 110 0 110 107 0 c124 0
115 -10 114 128 -1 86 0 92 19 93 12 1 57 2 101 4 44 1 85 3 90 4 12 1 14 211
1 211 -5 0 -4 6 1 13 10 14 10 423 0 433 -8 8 -153 11 -188 4z"/>
<path d="M520 4192 l-76 -3 0 -109 0 -110 108 0 c96 0 108 -2 109 -17 1 -10 1
-60 0 -110 0 -67 3 -93 12 -94 6 -1 53 -2 102 -4 50 -1 95 -3 100 -4 6 0 10
-44 9 -109 l-1 -107 328 0 c306 0 329 1 330 18 1 22 1 93 0 156 l-1 48 -107
-1 -108 -1 -2 105 c-1 58 -2 108 -2 113 -1 4 -50 7 -110 7 l-109 0 1 105 c0
58 -2 108 -5 110 -6 6 -461 12 -578 7z"/>
<path d="M5834 4190 l-120 -5 0 -105 0 -105 -110 -5 -109 -5 0 -108 c0 -59 -2
-108 -5 -108 -3 -1 -52 -2 -110 -3 l-105 -1 -1 -107 c0 -60 2 -109 5 -109 3
-1 151 -2 329 -3 318 -2 322 -1 323 19 1 11 1 59 1 108 0 48 3 88 6 88 4 1 51
2 104 3 53 1 100 5 104 8 4 4 6 55 5 113 l-1 105 109 0 c127 0 118 -10 111
130 l-5 95 -205 0 c-113 0 -259 -2 -326 -5z"/>
<path d="M6810 3858 l0 -113 -107 0 -108 0 -3 -111 -3 -111 -87 1 c-143 3
-132 12 -131 -115 l1 -109 109 0 109 0 0 -110 c0 -126 -17 -112 133 -112 l87
0 0 -109 c0 -60 3 -110 8 -110 4 -1 51 -2 106 -3 84 -1 99 1 105 16 3 9 5 260
3 557 l-2 541 -110 0 -110 0 0 -112z"/>
<path d="M0 3413 c0 -289 2 -333 15 -334 8 0 53 -1 100 -1 47 0 90 1 95 1 6 1
10 46 10 114 l0 112 112 0 112 0 0 103 c1 59 -3 107 -9 110 -16 10 -205 8
-205 -2 0 -5 -3 -7 -6 -3 -4 3 -6 57 -5 120 l2 113 -110 0 -111 0 0 -333z"/>
<path d="M3301 3730 c-8 -18 -6 -183 2 -197 4 -6 -36 -9 -99 -9 -58 1 -110 -2
-116 -5 -9 -6 -13 -100 -9 -196 1 -22 4 -23 110 -23 l110 0 -1 -105 c-1 -58 2
-108 5 -111 5 -5 147 -9 198 -5 13 1 16 17 15 109 l0 107 109 5 110 5 0 110 0
109 -105 2 c-58 1 -107 2 -110 3 -3 0 -5 50 -4 109 l1 108 -104 0 c-84 0 -106
-3 -112 -16z"/>
<path d="M891 3300 c-4 -3 -8 -52 -8 -110 -1 -58 -2 -107 -2 -110 -1 -3 -50
-4 -110 -3 l-108 1 1 -105 c1 -58 -1 -108 -4 -112 -3 -3 -52 -6 -110 -6 l-105
0 0 -110 0 -110 320 -1 c176 -1 325 1 330 3 6 2 9 46 8 111 l-2 108 106 -1
c92 -1 106 1 112 16 3 10 5 64 5 121 -1 57 0 99 2 93 4 -10 200 -13 209 -3 4
4 8 144 6 200 -1 16 -26 18 -322 20 -177 2 -324 1 -328 -2z"/>
<path d="M1973 3302 l-212 -2 1 -98 c1 -54 -2 -104 -6 -110 -8 -14 -3 -14 132
-14 l92 0 0 -112 0 -111 108 0 107 0 5 -111 5 -111 90 0 c50 -1 98 -2 108 -2
15 -1 17 -13 17 -111 l0 -110 110 0 109 0 -1 -107 c-1 -59 3 -108 8 -110 5 -1
54 -4 109 -5 l100 -3 2 -90 c1 -49 2 -99 3 -110 0 -19 6 -20 109 -20 l109 0 0
-85 c0 -47 0 -97 1 -111 l1 -27 109 1 109 1 0 223 -1 224 -104 -2 c-57 -1
-107 1 -110 5 -3 3 -6 53 -5 111 l0 105 -109 0 c-80 0 -109 3 -110 13 0 6 0
56 1 110 1 53 -2 97 -7 98 -4 0 -54 1 -110 2 l-103 1 -1 40 c0 23 -1 73 -2
111 l-2 70 -107 0 -108 0 0 112 0 112 -77 -1 c-43 0 -93 1 -110 1 l-33 1 0
109 c0 61 -3 111 -7 113 -5 2 -103 2 -220 0z"/>
<path d="M4720 3300 l-105 -5 0 -107 c0 -66 -4 -108 -10 -109 -5 0 -53 -1
-107 0 -67 0 -97 -3 -100 -12 -2 -7 -4 -56 -3 -109 1 -61 -3 -99 -9 -101 -6
-1 -55 -3 -108 -2 -61 0 -98 -3 -99 -10 -1 -5 -3 -50 -4 -100 -1 -49 -3 -95
-4 -101 -1 -7 -35 -11 -102 -10 -57 1 -104 -3 -108 -9 -3 -5 -6 -56 -6 -112
l1 -102 -110 -3 -110 -3 1 -107 1 -108 -87 -1 c-47 -1 -94 0 -105 1 -10 1 -22
-3 -25 -8 -5 -8 -6 -401 -2 -433 1 -4 49 -6 109 -5 l107 1 2 100 c1 55 2 105
2 111 1 7 35 10 101 9 55 0 104 1 109 4 4 4 8 45 9 94 0 48 1 96 1 107 1 18 8
19 79 19 42 -1 91 -1 109 0 l31 1 -2 98 c-2 53 -1 103 2 110 3 8 34 12 107 12
73 0 104 4 107 13 2 6 4 56 4 110 -1 79 2 97 14 98 8 1 49 1 90 0 123 -1 116
-8 115 114 -1 67 3 105 9 106 6 1 52 3 101 4 50 1 95 3 100 4 7 1 10 38 10
101 -1 55 1 104 5 110 4 6 41 9 92 7 127 -4 123 -9 123 113 1 62 -3 104 -10
106 -18 7 -218 9 -325 4z"/>
<path d="M5287 3298 c-8 -5 -12 -45 -13 -113 -1 -100 0 -105 20 -106 12 -1 61
-2 110 -2 l89 -2 0 -107 c1 -66 5 -109 11 -111 6 -2 55 -3 109 -2 80 0 97 -2
98 -15 0 -8 1 -58 1 -111 l1 -96 328 0 328 0 3 81 c2 45 1 95 -2 112 l-5 30
-98 0 c-54 -1 -102 1 -107 4 -4 3 -7 53 -7 112 l2 106 -85 0 c-47 0 -97 1
-111 1 l-25 1 -1 105 c0 58 -3 108 -5 111 -9 8 -629 10 -641 2z"/>
<path d="M1540 2780 c1 -41 1 -91 1 -111 l-1 -37 -110 2 -109 1 0 -100 c0 -55
0 -106 0 -112 -1 -10 -30 -13 -110 -13 l-108 0 1 -332 1 -333 108 -1 c74 -1
107 2 108 10 1 6 1 56 1 112 l0 100 109 -1 109 -1 1 56 c0 30 1 81 1 112 l0
57 105 0 c58 0 108 2 110 5 4 4 7 566 4 641 -1 19 -8 20 -112 20 l-110 0 1
-75z"/>
<path d="M5062 2850 c-12 -8 -9 -660 3 -661 5 0 55 0 110 0 l100 0 0 -112 0
-112 110 0 110 0 0 -110 0 -110 108 -1 c93 -2 107 0 108 15 0 9 1 158 2 331
l1 315 -111 5 -110 5 1 108 1 107 -25 1 c-14 1 -64 2 -111 1 l-85 0 0 111 1
112 -103 0 c-56 1 -106 -2 -110 -5z"/>
<path d="M9 1965 c-1 0 -3 -151 -4 -335 l-1 -335 110 0 110 0 1 -110 1 -110
109 0 109 0 2 -105 c0 -58 2 -109 3 -113 0 -5 48 -7 106 -5 99 3 105 2 106
-17 1 -11 1 -62 1 -113 l0 -93 112 3 111 3 -2 -112 c-1 -99 1 -113 15 -114 21
-1 599 -1 627 0 19 1 20 7 18 98 -1 54 -2 104 -3 111 0 9 -29 12 -109 12
l-109 0 1 105 c0 58 -2 107 -5 111 -4 3 -53 6 -110 7 l-103 2 0 108 c0 64 -4
108 -10 108 -5 1 -55 2 -110 3 l-100 1 -2 93 c0 50 -2 100 -2 111 -1 17 -10
18 -108 18 l-108 -1 -2 108 c0 59 -3 109 -5 112 -3 2 -52 5 -109 7 l-104 2 0
102 c0 56 -4 105 -8 109 -4 4 -53 8 -109 8 l-103 1 -1 100 c-1 55 -2 105 -3
110 -1 7 -172 15 -212 10z"/>
<path d="M6594 1961 c-2 -2 -4 -53 -4 -112 l0 -108 -87 1 c-150 1 -133 14
-133 -112 l0 -110 -111 0 -110 0 1 -82 c1 -46 2 -96 1 -113 l-1 -30 -107 0
-108 0 -1 -110 -1 -110 -99 -1 c-55 -1 -104 -2 -110 -3 -8 -1 -11 -34 -10
-102 0 -55 -2 -105 -5 -110 -3 -5 -30 -9 -60 -8 -30 1 -77 1 -105 0 l-51 -1 1
-112 1 -113 -110 0 -110 0 -1 -107 c-1 -60 2 -108 5 -109 36 -5 636 -2 644 3
7 4 11 45 12 110 l0 103 108 3 c93 2 107 5 108 20 0 9 1 58 2 107 l2 90 108 3
107 3 1 72 c0 40 1 90 2 112 l2 40 100 1 c55 1 105 2 110 3 6 1 9 43 7 110
l-3 109 101 -1 c56 -1 106 0 111 3 10 7 17 440 6 440 -4 0 -4 6 0 14 4 8 7 59
5 113 l-3 99 -105 -1 c-58 0 -108 -2 -110 -4z"/>
<path d="M2204 1741 c-2 -2 -4 -53 -4 -113 0 -81 -3 -108 -12 -107 -7 1 -57 1
-111 0 l-98 -1 3 -112 3 -113 -112 1 -111 1 -4 -28 c-3 -16 -2 -29 1 -29 3 0
6 -37 6 -82 l0 -83 325 0 325 0 3 111 3 111 107 -1 107 0 3 100 c1 54 4 105 7
112 3 8 35 12 109 12 l105 0 -2 112 -2 112 -323 0 c-178 1 -326 -1 -328 -3z"/>
<path d="M3962 1735 c-3 -5 -6 -55 -7 -110 l0 -100 110 -5 110 -5 0 -100 c0
-55 3 -105 7 -110 3 -6 50 -10 110 -9 l104 1 0 -111 -1 -111 323 0 c178 0 326
2 330 5 4 3 7 53 7 112 l0 106 -103 -1 c-60 -1 -107 2 -110 8 -4 6 -7 53 -8
105 -1 52 -2 98 -3 102 0 4 -49 9 -108 10 l-108 3 0 102 c0 56 -3 105 -8 109
-12 12 -638 11 -645 -1z"/>
<path d="M3560 1522 l-45 -3 1 -332 1 -332 69 -2 c38 -1 88 -2 111 -2 l41 -1
-2 -101 c-1 -55 1 -104 4 -109 3 -5 53 -11 110 -12 l105 -3 0 -108 c0 -88 3
-107 15 -108 18 -1 168 -1 190 0 14 1 16 42 16 334 l0 333 -104 -1 c-57 -1
-106 4 -109 9 -4 5 -7 55 -7 110 l-1 101 -109 1 -110 0 0 110 -1 109 -65 5
c-36 3 -85 4 -110 2z"/>
<path d="M3079 1508 c-1 -7 -1 -57 -1 -110 0 -85 -2 -98 -16 -99 -10 -1 -59
-1 -109 -1 -79 0 -93 -3 -94 -17 0 -9 -1 -59 -2 -111 l-2 -95 -102 0 c-56 0
-104 -3 -108 -7 -9 -9 -9 -483 0 -498 3 -5 3 -10 -2 -10 -8 0 -7 -140 2 -148
6 -6 174 -9 198 -4 16 4 18 15 15 113 l-3 109 112 0 112 0 -1 105 c-1 58 1
108 5 111 3 4 53 6 110 5 l104 -2 0 336 0 335 -108 0 c-80 0 -109 -3 -110 -12z"/>
<path d="M6827 852 c-15 -3 -17 -17 -17 -113 l0 -109 -110 0 -110 0 0 -110 c0
-107 1 -110 23 -111 12 -1 110 -1 217 -2 l195 -1 3 225 2 224 -93 0 c-51 0
-100 -1 -110 -3z"/>
<path d="M5 526 c0 -57 3 -108 8 -112 4 -4 50 -8 103 -8 76 -1 97 2 103 14 4
8 7 58 6 110 l0 95 -111 3 -110 3 1 -105z"/>
</g>
</svg>
